# xmcd
#
# Track frame offsets:
# 150
# 19045
# 31381
# 48676
# 66349
# 86987
# 104407
# 119761
# 140432
# 157544
# 171457
# 186674
#
# Disc length: 2764 seconds
#
#
# Revision: 0
# Processed by: cddbd v1.5.1PL2 Copyright (c) Steve Scherf et al.
# Submitted via: FreeRIP 2.945 
#
DISCID=b10aca0c
DTITLE=varios - o melhor do sertanejo
DYEAR=2001
DGENRE=sertanejo
TTITLE0=levando a vida
TTITLE1=rei dos reis
TTITLE2=ausencia
TTITLE3=quem sera seu outro amor
TTITLE4=paloma
TTITLE5=viajante solitario (o comboio)
TTITLE6=haja coraçao
TTITLE7=frente a frente
TTITLE8=voce marcou pra mim
TTITLE9=que pena
TTITLE10=estrela de ouro
TTITLE11=pro que der e vier
EXTD=
EXTT0=
EXTT1=
EXTT2=
EXTT3=
EXTT4=
EXTT5=
EXTT6=
EXTT7=
EXTT8=
EXTT9=
EXTT10=
EXTT11=
PLAYORDER=
